<svg width="76" height="22" viewBox="0 0 76 22" fill="none" xmlns="http://www.w3.org/2000/svg">
<path d="M0 0.569824H2.52686V6.14844C3.007 5.71712 3.49121 5.39567 3.97949 5.18408C4.47591 4.96436 5.0415 4.85449 5.67627 4.85449C6.40869 4.85449 7.08822 5.00505 7.71484 5.30615C8.34147 5.59912 8.87858 6.01009 9.32617 6.53906C9.77376 7.0599 10.1278 7.69059 10.3882 8.43115C10.6486 9.16357 10.7788 9.9611 10.7788 10.8237C10.7788 11.6945 10.6486 12.4961 10.3882 13.2285C10.1278 13.9609 9.77376 14.5916 9.32617 15.1206C8.87858 15.6414 8.34147 16.0483 7.71484 16.3413C7.08822 16.6343 6.40869 16.7808 5.67627 16.7808C5.0415 16.7808 4.47591 16.6668 3.97949 16.439C3.49121 16.2111 3.007 15.8815 2.52686 15.4502V16.5H0V0.569824ZM2.52686 13.4727C2.82796 13.8063 3.21045 14.0627 3.67432 14.2417C4.14632 14.4126 4.59798 14.498 5.0293 14.498C5.98145 14.498 6.75456 14.1603 7.34863 13.4849C7.95085 12.8094 8.25195 11.9224 8.25195 10.8237C8.25195 9.7251 7.95085 8.83398 7.34863 8.15039C6.75456 7.4668 5.98145 7.125 5.0293 7.125C4.59798 7.125 4.14632 7.21452 3.67432 7.39355C3.21045 7.56445 2.82796 7.81673 2.52686 8.15039V13.4727Z" fill="black"/>
<path d="M24.3286 5.12305L19.4214 18.7217C19.0552 19.7064 18.5221 20.3818 17.8223 20.748C17.1224 21.1143 16.2882 21.2974 15.3198 21.2974C14.9862 21.2974 14.6281 21.2648 14.2456 21.1997C13.8631 21.1346 13.4644 21.0247 13.0493 20.8701L13.5742 18.5508C13.9242 18.681 14.2456 18.7705 14.5386 18.8193C14.8315 18.8763 15.092 18.9048 15.3198 18.9048C16.0767 18.9048 16.5934 18.5711 16.8701 17.9038L17.3218 16.8052L12.9761 5.12305H15.6006L18.7256 13.729L21.6187 5.12305H24.3286Z" fill="black"/>
<path d="M27.2949 0.569824H29.8218V6.14844C30.3019 5.71712 30.7861 5.39567 31.2744 5.18408C31.7708 4.96436 32.3364 4.85449 32.9712 4.85449C33.7036 4.85449 34.3831 5.00505 35.0098 5.30615C35.6364 5.59912 36.1735 6.01009 36.6211 6.53906C37.0687 7.0599 37.4227 7.69059 37.6831 8.43115C37.9435 9.16357 38.0737 9.9611 38.0737 10.8237C38.0737 11.6945 37.9435 12.4961 37.6831 13.2285C37.4227 13.9609 37.0687 14.5916 36.6211 15.1206C36.1735 15.6414 35.6364 16.0483 35.0098 16.3413C34.3831 16.6343 33.7036 16.7808 32.9712 16.7808C32.3364 16.7808 31.7708 16.6668 31.2744 16.439C30.7861 16.2111 30.3019 15.8815 29.8218 15.4502V16.5H27.2949V0.569824ZM29.8218 13.4727C30.1229 13.8063 30.5054 14.0627 30.9692 14.2417C31.4412 14.4126 31.8929 14.498 32.3242 14.498C33.2764 14.498 34.0495 14.1603 34.6436 13.4849C35.2458 12.8094 35.5469 11.9224 35.5469 10.8237C35.5469 9.7251 35.2458 8.83398 34.6436 8.15039C34.0495 7.4668 33.2764 7.125 32.3242 7.125C31.8929 7.125 31.4412 7.21452 30.9692 7.39355C30.5054 7.56445 30.1229 7.81673 29.8218 8.15039V13.4727Z" fill="black"/>
<path d="M75.9009 12.8745C75.7707 14.0708 75.2987 15.0229 74.4849 15.731C73.6792 16.4308 72.6701 16.7808 71.4575 16.7808C70.7902 16.7808 70.1798 16.6709 69.6265 16.4512C69.0731 16.2314 68.6011 15.9263 68.2104 15.5356C67.8198 15.145 67.5146 14.6771 67.2949 14.1318C67.0833 13.5785 66.9775 12.9762 66.9775 12.3252V7.40576H64.4019V5.12305H66.9775V0.569824H69.5044V5.12305H74.2773V7.40576H69.5044V12.3252C69.5044 13.0576 69.6834 13.6029 70.0415 13.9609C70.3996 14.319 70.8716 14.498 71.4575 14.498C72.1737 14.498 72.7067 14.2905 73.0566 13.8755C73.4066 13.4604 73.6141 12.96 73.6792 12.374L75.9009 12.8745Z" fill="black"/>
<path d="M49.9478 16.5H42.3062V14.2295H44.8208V2.85254H42.3062V0.569824H49.9478V2.85254H47.3477V14.2295H49.9478V16.5Z" fill="#FF8C00"/>
<path d="M60.9478 5.5H53.3062V7.77051H55.8208V19.1475H53.3062V21.4302H60.9478V19.1475H58.3477V7.77051H60.9478V5.5Z" fill="#FF8C00"/>
</svg>
