<svg width="18" height="21" viewBox="0 0 18 21" fill="none" xmlns="http://www.w3.org/2000/svg">
<path d="M9 4.48571C8.4885 4.48571 8.05292 4.30596 7.69325 3.94646C7.33358 3.58679 7.15375 3.15121 7.15375 2.63971C7.15375 2.12821 7.33358 1.69262 7.69325 1.33296C8.05292 0.973289 8.4885 0.793457 9 0.793457C9.5115 0.793457 9.94708 0.973289 10.3068 1.33296C10.6664 1.69262 10.8462 2.12821 10.8462 2.63971C10.8462 3.15121 10.6664 3.58679 10.3068 3.94646C9.94708 4.30596 9.5115 4.48571 9 4.48571ZM6.404 20.332V7.29346C5.38467 7.21012 4.37117 7.08996 3.3635 6.93296C2.35583 6.77579 1.40133 6.58187 0.5 6.35121L0.8655 4.85121C2.14617 5.18204 3.47342 5.42179 4.84725 5.57046C6.22092 5.71912 7.60517 5.79346 9 5.79346C10.3948 5.79346 11.7791 5.71912 13.1528 5.57046C14.5266 5.42179 15.8538 5.18204 17.1345 4.85121L17.5 6.35121C16.5987 6.58187 15.6442 6.77579 14.6365 6.93296C13.6288 7.08996 12.6153 7.21012 11.596 7.29346V20.332H10.0962V14.2165H7.90375V20.332H6.404Z" fill="#FF8C00"/>
</svg>
