<svg width="17" height="16" viewBox="0 0 17 16" fill="none" xmlns="http://www.w3.org/2000/svg">
<path d="M2.49967 15.0823C2.04134 15.0823 1.64898 14.9191 1.32259 14.5927C0.996202 14.2663 0.833008 13.8739 0.833008 13.4156V1.74894C0.833008 1.29061 0.996202 0.898248 1.32259 0.571859C1.64898 0.24547 2.04134 0.0822754 2.49967 0.0822754H14.1663C14.6247 0.0822754 15.017 0.24547 15.3434 0.571859C15.6698 0.898248 15.833 1.29061 15.833 1.74894V3.83228H14.1663V1.74894H2.49967V13.4156H14.1663V11.3323H15.833V13.4156C15.833 13.8739 15.6698 14.2663 15.3434 14.5927C15.017 14.9191 14.6247 15.0823 14.1663 15.0823H2.49967ZM9.16634 11.7489C8.70801 11.7489 8.31565 11.5857 7.98926 11.2594C7.66287 10.933 7.49967 10.5406 7.49967 10.0823V5.08228C7.49967 4.62394 7.66287 4.23158 7.98926 3.90519C8.31565 3.5788 8.70801 3.41561 9.16634 3.41561H14.9997C15.458 3.41561 15.8504 3.5788 16.1768 3.90519C16.5031 4.23158 16.6663 4.62394 16.6663 5.08228V10.0823C16.6663 10.5406 16.5031 10.933 16.1768 11.2594C15.8504 11.5857 15.458 11.7489 14.9997 11.7489H9.16634ZM14.9997 10.0823V5.08228H9.16634V10.0823H14.9997ZM11.6663 8.83228C12.0136 8.83228 12.3087 8.71075 12.5518 8.46769C12.7948 8.22464 12.9163 7.9295 12.9163 7.58228C12.9163 7.23505 12.7948 6.93991 12.5518 6.69686C12.3087 6.4538 12.0136 6.33228 11.6663 6.33228C11.3191 6.33228 11.024 6.4538 10.7809 6.69686C10.5379 6.93991 10.4163 7.23505 10.4163 7.58228C10.4163 7.9295 10.5379 8.22464 10.7809 8.46769C11.024 8.71075 11.3191 8.83228 11.6663 8.83228Z" fill="#F37335"/>
</svg>
