<svg width="17" height="17" viewBox="0 0 17 17" fill="none" xmlns="http://www.w3.org/2000/svg">
<path d="M3.20833 12.8324C3.91667 12.2907 4.70833 11.8636 5.58333 11.5511C6.45833 11.2386 7.375 11.0824 8.33333 11.0824C9.29167 11.0824 10.2083 11.2386 11.0833 11.5511C11.9583 11.8636 12.75 12.2907 13.4583 12.8324C13.9444 12.2629 14.3229 11.6171 14.5938 10.8949C14.8646 10.1726 15 9.4018 15 8.58236C15 6.73513 14.3507 5.16222 13.0521 3.86361C11.7535 2.565 10.1806 1.91569 8.33333 1.91569C6.48611 1.91569 4.91319 2.565 3.61458 3.86361C2.31597 5.16222 1.66667 6.73513 1.66667 8.58236C1.66667 9.4018 1.80208 10.1726 2.07292 10.8949C2.34375 11.6171 2.72222 12.2629 3.20833 12.8324ZM8.33333 9.41569C7.51389 9.41569 6.82292 9.13444 6.26042 8.57194C5.69792 8.00944 5.41667 7.31847 5.41667 6.49902C5.41667 5.67958 5.69792 4.98861 6.26042 4.42611C6.82292 3.86361 7.51389 3.58236 8.33333 3.58236C9.15278 3.58236 9.84375 3.86361 10.4063 4.42611C10.9688 4.98861 11.25 5.67958 11.25 6.49902C11.25 7.31847 10.9688 8.00944 10.4063 8.57194C9.84375 9.13444 9.15278 9.41569 8.33333 9.41569ZM8.33333 16.9157C7.18056 16.9157 6.09722 16.6969 5.08333 16.2594C4.06944 15.8219 3.1875 15.2282 2.4375 14.4782C1.6875 13.7282 1.09375 12.8462 0.65625 11.8324C0.21875 10.8185 0 9.73514 0 8.58236C0 7.42958 0.21875 6.34625 0.65625 5.33236C1.09375 4.31847 1.6875 3.43652 2.4375 2.68652C3.1875 1.93652 4.06944 1.34277 5.08333 0.905273C6.09722 0.467773 7.18056 0.249023 8.33333 0.249023C9.48611 0.249023 10.5694 0.467773 11.5833 0.905273C12.5972 1.34277 13.4792 1.93652 14.2292 2.68652C14.9792 3.43652 15.5729 4.31847 16.0104 5.33236C16.4479 6.34625 16.6667 7.42958 16.6667 8.58236C16.6667 9.73514 16.4479 10.8185 16.0104 11.8324C15.5729 12.8462 14.9792 13.7282 14.2292 14.4782C13.4792 15.2282 12.5972 15.8219 11.5833 16.2594C10.5694 16.6969 9.48611 16.9157 8.33333 16.9157ZM8.33333 15.249C9.06944 15.249 9.76389 15.1414 10.4167 14.9261C11.0694 14.7108 11.6667 14.4018 12.2083 13.999C11.6667 13.5962 11.0694 13.2872 10.4167 13.0719C9.76389 12.8567 9.06944 12.749 8.33333 12.749C7.59722 12.749 6.90278 12.8567 6.25 13.0719C5.59722 13.2872 5 13.5962 4.45833 13.999C5 14.4018 5.59722 14.7108 6.25 14.9261C6.90278 15.1414 7.59722 15.249 8.33333 15.249ZM8.33333 7.74902C8.69444 7.74902 8.99306 7.63097 9.22917 7.39486C9.46528 7.15875 9.58333 6.86014 9.58333 6.49902C9.58333 6.13791 9.46528 5.8393 9.22917 5.60319C8.99306 5.36708 8.69444 5.24902 8.33333 5.24902C7.97222 5.24902 7.67361 5.36708 7.4375 5.60319C7.20139 5.8393 7.08333 6.13791 7.08333 6.49902C7.08333 6.86014 7.20139 7.15875 7.4375 7.39486C7.67361 7.63097 7.97222 7.74902 8.33333 7.74902Z" fill="#FF8C00"/>
</svg>
