<svg width="22" height="21" viewBox="0 0 22 21" fill="none" xmlns="http://www.w3.org/2000/svg">
<path d="M9.94961 15.1324L15.5996 9.48237L14.1746 8.05737L9.94961 12.2824L7.82461 10.1574L6.39961 11.5824L9.94961 15.1324ZM10.9996 20.5824C9.74961 20.5824 8.57878 20.3449 7.48711 19.8699C6.39544 19.3949 5.44544 18.7532 4.63711 17.9449C3.82878 17.1365 3.18711 16.1865 2.71211 15.0949C2.23711 14.0032 1.99961 12.8324 1.99961 11.5824C1.99961 10.3324 2.23711 9.16154 2.71211 8.06987C3.18711 6.97821 3.82878 6.02821 4.63711 5.21987C5.44544 4.41154 6.39544 3.76987 7.48711 3.29487C8.57878 2.81987 9.74961 2.58237 10.9996 2.58237C12.2496 2.58237 13.4204 2.81987 14.5121 3.29487C15.6038 3.76987 16.5538 4.41154 17.3621 5.21987C18.1704 6.02821 18.8121 6.97821 19.2871 8.06987C19.7621 9.16154 19.9996 10.3324 19.9996 11.5824C19.9996 12.8324 19.7621 14.0032 19.2871 15.0949C18.8121 16.1865 18.1704 17.1365 17.3621 17.9449C16.5538 18.7532 15.6038 19.3949 14.5121 19.8699C13.4204 20.3449 12.2496 20.5824 10.9996 20.5824ZM4.59961 0.932373L5.99961 2.33237L1.74961 6.58237L0.349609 5.18237L4.59961 0.932373ZM17.3996 0.932373L21.6496 5.18237L20.2496 6.58237L15.9996 2.33237L17.3996 0.932373ZM10.9996 18.5824C12.9496 18.5824 14.6038 17.9032 15.9621 16.5449C17.3204 15.1865 17.9996 13.5324 17.9996 11.5824C17.9996 9.63237 17.3204 7.97821 15.9621 6.61987C14.6038 5.26154 12.9496 4.58237 10.9996 4.58237C9.04961 4.58237 7.39544 5.26154 6.03711 6.61987C4.67878 7.97821 3.99961 9.63237 3.99961 11.5824C3.99961 13.5324 4.67878 15.1865 6.03711 16.5449C7.39544 17.9032 9.04961 18.5824 10.9996 18.5824Z" fill="#FF8C00"/>
</svg>
