<svg width="24" height="25" viewBox="0 0 24 25" fill="none" xmlns="http://www.w3.org/2000/svg">
<mask id="mask0_50_415" style="mask-type:alpha" maskUnits="userSpaceOnUse" x="0" y="0" width="24" height="25">
<rect y="0.791016" width="24" height="24" fill="#D9D9D9"/>
</mask>
<g mask="url(#mask0_50_415)">
<path d="M1 18.791C1.15 17.0076 1.69583 15.366 2.6375 13.866C3.57917 12.366 4.83333 11.1743 6.4 10.291L4.55 7.09097C4.45 6.94097 4.425 6.78263 4.475 6.61597C4.525 6.4493 4.63333 6.3243 4.8 6.24097C4.93333 6.15763 5.08333 6.14097 5.25 6.19097C5.41667 6.24097 5.55 6.34097 5.65 6.49097L7.5 9.69097C8.93333 9.09097 10.4333 8.79097 12 8.79097C13.5667 8.79097 15.0667 9.09097 16.5 9.69097L18.35 6.49097C18.45 6.34097 18.5833 6.24097 18.75 6.19097C18.9167 6.14097 19.0667 6.15763 19.2 6.24097C19.3667 6.3243 19.475 6.4493 19.525 6.61597C19.575 6.78263 19.55 6.94097 19.45 7.09097L17.6 10.291C19.1667 11.1743 20.4208 12.366 21.3625 13.866C22.3042 15.366 22.85 17.0076 23 18.791H1ZM7 16.041C7.35 16.041 7.64583 15.9201 7.8875 15.6785C8.12917 15.4368 8.25 15.141 8.25 14.791C8.25 14.441 8.12917 14.1451 7.8875 13.9035C7.64583 13.6618 7.35 13.541 7 13.541C6.65 13.541 6.35417 13.6618 6.1125 13.9035C5.87083 14.1451 5.75 14.441 5.75 14.791C5.75 15.141 5.87083 15.4368 6.1125 15.6785C6.35417 15.9201 6.65 16.041 7 16.041ZM17 16.041C17.35 16.041 17.6458 15.9201 17.8875 15.6785C18.1292 15.4368 18.25 15.141 18.25 14.791C18.25 14.441 18.1292 14.1451 17.8875 13.9035C17.6458 13.6618 17.35 13.541 17 13.541C16.65 13.541 16.3542 13.6618 16.1125 13.9035C15.8708 14.1451 15.75 14.441 15.75 14.791C15.75 15.141 15.8708 15.4368 16.1125 15.6785C16.3542 15.9201 16.65 16.041 17 16.041Z" fill="white"/>
</g>
</svg>
