<svg width="24" height="25" viewBox="0 0 24 25" fill="none" xmlns="http://www.w3.org/2000/svg">
<mask id="mask0_50_422" style="mask-type:alpha" maskUnits="userSpaceOnUse" x="0" y="0" width="24" height="25">
<rect y="0.791016" width="24" height="24" fill="#D9D9D9"/>
</mask>
<g mask="url(#mask0_50_422)">
<path d="M5 21.791C4.71667 21.791 4.47917 21.6952 4.2875 21.5035C4.09583 21.3118 4 21.0743 4 20.791V19.791H3V15.791C3 15.5077 3.09583 15.2702 3.2875 15.0785C3.47917 14.8868 3.71667 14.791 4 14.791H5L5 7.79102C5 6.69102 5.39167 5.74935 6.175 4.96602C6.95833 4.18268 7.9 3.79102 9 3.79102C10.1 3.79102 11.0417 4.18268 11.825 4.96602C12.6083 5.74935 13 6.69102 13 7.79102V17.791C13 18.341 13.1958 18.8118 13.5875 19.2035C13.9792 19.5952 14.45 19.791 15 19.791C15.55 19.791 16.0208 19.5952 16.4125 19.2035C16.8042 18.8118 17 18.341 17 17.791V10.791H16C15.7167 10.791 15.4792 10.6952 15.2875 10.5035C15.0958 10.3118 15 10.0743 15 9.79102V5.79102H16V4.79102C16 4.50768 16.0958 4.27018 16.2875 4.07852C16.4792 3.88685 16.7167 3.79102 17 3.79102H19C19.2833 3.79102 19.5208 3.88685 19.7125 4.07852C19.9042 4.27018 20 4.50768 20 4.79102V5.79102H21V9.79102C21 10.0743 20.9042 10.3118 20.7125 10.5035C20.5208 10.6952 20.2833 10.791 20 10.791H19V17.791C19 18.891 18.6083 19.8327 17.825 20.616C17.0417 21.3993 16.1 21.791 15 21.791C13.9 21.791 12.9583 21.3993 12.175 20.616C11.3917 19.8327 11 18.891 11 17.791V7.79102C11 7.24102 10.8042 6.77018 10.4125 6.37852C10.0208 5.98685 9.55 5.79102 9 5.79102C8.45 5.79102 7.97917 5.98685 7.5875 6.37852C7.19583 6.77018 7 7.24102 7 7.79102V14.791H8C8.28333 14.791 8.52083 14.8868 8.7125 15.0785C8.90417 15.2702 9 15.5077 9 15.791V19.791H8V20.791C8 21.0743 7.90417 21.3118 7.7125 21.5035C7.52083 21.6952 7.28333 21.791 7 21.791H5Z" fill="#1C1B1F"/>
</g>
</svg>
