<svg width="19" height="19" viewBox="0 0 19 19" fill="none" xmlns="http://www.w3.org/2000/svg">
<path d="M2 16.5823V2.58228V7.05728V6.58228V16.5823ZM4 10.5823H9.525C9.55833 10.2156 9.64167 9.86561 9.775 9.53228C9.90833 9.19894 10.075 8.88228 10.275 8.58228H4V10.5823ZM4 14.5823H7.925C8.20833 14.2489 8.53333 13.9781 8.9 13.7698C9.26667 13.5614 9.65 13.3906 10.05 13.2573C9.98333 13.1573 9.925 13.0489 9.875 12.9323C9.825 12.8156 9.78333 12.6989 9.75 12.5823H4V14.5823ZM4 6.58228H14V4.58228H4V6.58228ZM2 18.5823C1.45 18.5823 0.979167 18.3864 0.5875 17.9948C0.195833 17.6031 0 17.1323 0 16.5823V2.58228C0 2.03228 0.195833 1.56144 0.5875 1.16978C0.979167 0.778109 1.45 0.582275 2 0.582275H16C16.55 0.582275 17.0208 0.778109 17.4125 1.16978C17.8042 1.56144 18 2.03228 18 2.58228V9.03228C17.7667 8.59894 17.4833 8.21561 17.15 7.88228C16.8167 7.54894 16.4333 7.27394 16 7.05728V2.58228H2V16.5823H7.05C7.03333 16.6823 7.02083 16.7823 7.0125 16.8823C7.00417 16.9823 7 17.0823 7 17.1823V18.5823H2ZM14 13.5823C13.3 13.5823 12.7083 13.3406 12.225 12.8573C11.7417 12.3739 11.5 11.7823 11.5 11.0823C11.5 10.3823 11.7417 9.79061 12.225 9.30728C12.7083 8.82394 13.3 8.58228 14 8.58228C14.7 8.58228 15.2917 8.82394 15.775 9.30728C16.2583 9.79061 16.5 10.3823 16.5 11.0823C16.5 11.7823 16.2583 12.3739 15.775 12.8573C15.2917 13.3406 14.7 13.5823 14 13.5823ZM9 18.5823V17.1823C9 16.7823 9.10417 16.4114 9.3125 16.0698C9.52083 15.7281 9.81667 15.4823 10.2 15.3323C10.8 15.0823 11.4208 14.8948 12.0625 14.7698C12.7042 14.6448 13.35 14.5823 14 14.5823C14.65 14.5823 15.2958 14.6448 15.9375 14.7698C16.5792 14.8948 17.2 15.0823 17.8 15.3323C18.1833 15.4823 18.4792 15.7281 18.6875 16.0698C18.8958 16.4114 19 16.7823 19 17.1823V18.5823H9Z" fill="#FF8C00"/>
</svg>
