<svg width="18" height="18" viewBox="0 0 18 18" fill="none" xmlns="http://www.w3.org/2000/svg">
<path d="M2.49967 13.0614C2.63856 13.0197 2.77398 12.985 2.90592 12.9572C3.03787 12.9294 3.18023 12.9155 3.33301 12.9155H4.16634V2.91553H3.33301C3.0969 2.91553 2.89898 2.99539 2.73926 3.15511C2.57954 3.31483 2.49967 3.51275 2.49967 3.74886V13.0614ZM3.33301 17.9155C2.63856 17.9155 2.04829 17.6725 1.56217 17.1864C1.07606 16.7002 0.833008 16.11 0.833008 15.4155V3.74886C0.833008 3.05442 1.07606 2.46414 1.56217 1.97803C2.04829 1.49192 2.63856 1.24886 3.33301 1.24886H9.16634V2.91553H5.83301V12.9155H10.833V10.4155H12.4997V14.5822H3.33301C3.0969 14.5822 2.89898 14.6621 2.73926 14.8218C2.57954 14.9815 2.49967 15.1794 2.49967 15.4155C2.49967 15.6516 2.57954 15.8496 2.73926 16.0093C2.89898 16.169 3.0969 16.2489 3.33301 16.2489H14.1663V9.58219H15.833V17.9155H3.33301ZM12.9163 9.58219C12.9163 8.30442 13.3608 7.22108 14.2497 6.33219C15.1386 5.44331 16.2219 4.99886 17.4997 4.99886C16.2219 4.99886 15.1386 4.55442 14.2497 3.66553C13.3608 2.77664 12.9163 1.69331 12.9163 0.415527C12.9163 1.69331 12.4719 2.77664 11.583 3.66553C10.6941 4.55442 9.61079 4.99886 8.33301 4.99886C9.61079 4.99886 10.6941 5.44331 11.583 6.33219C12.4719 7.22108 12.9163 8.30442 12.9163 9.58219Z" fill="#F37335"/>
</svg>
