<svg width="20" height="16" viewBox="0 0 20 16" fill="none" xmlns="http://www.w3.org/2000/svg">
<path d="M17.6923 15.5H12.7308C12.7308 15.25 12.7223 15 12.7053 14.75C12.6883 14.5 12.6628 14.25 12.6288 14H17.6923C17.7821 14 17.8558 13.9712 17.9135 13.9135C17.9712 13.8558 18 13.7821 18 13.6923V2.30775C18 2.21792 17.9712 2.14417 17.9135 2.0865C17.8558 2.02883 17.7821 2 17.6923 2H2.30775C2.21792 2 2.14417 2.02883 2.0865 2.0865C2.02883 2.14417 2 2.21792 2 2.30775V3.37125C1.75 3.33725 1.5 3.31175 1.25 3.29475C1 3.27775 0.75 3.26925 0.5 3.26925V2.30775C0.5 1.81058 0.677 1.385 1.031 1.031C1.385 0.677 1.81058 0.5 2.30775 0.5H17.6923C18.1894 0.5 18.615 0.677 18.969 1.031C19.323 1.385 19.5 1.81058 19.5 2.30775V13.6923C19.5 14.1894 19.323 14.615 18.969 14.969C18.615 15.323 18.1894 15.5 17.6923 15.5ZM0.5 15.5V13.0385C1.1795 13.0385 1.75967 13.2788 2.2405 13.7595C2.72117 14.2403 2.9615 14.8205 2.9615 15.5H0.5ZM5.15375 15.5C5.15375 14.2128 4.69992 13.1186 3.79225 12.2172C2.88458 11.3159 1.78717 10.8589 0.5 10.8463V9.34625C2.21283 9.34625 3.66667 9.94325 4.8615 11.1372C6.05633 12.3314 6.65375 13.7857 6.65375 15.5H5.15375ZM9.0385 15.5C9.0385 14.3153 8.81383 13.2057 8.3645 12.171C7.91517 11.1365 7.3055 10.2343 6.5355 9.4645C5.76567 8.6945 4.8635 8.08483 3.829 7.6355C2.79433 7.18617 1.68467 6.9615 0.5 6.9615V5.4615C1.8885 5.4615 3.19058 5.72367 4.40625 6.248C5.62208 6.77233 6.68592 7.49042 7.59775 8.40225C8.50958 9.31408 9.22767 10.3779 9.752 11.5938C10.2763 12.8094 10.5385 14.1115 10.5385 15.5H9.0385Z" fill="#FF8C00"/>
</svg>
