<svg width="16" height="14" viewBox="0 0 16 14" fill="none" xmlns="http://www.w3.org/2000/svg">
<path d="M15.9163 2.25646V11.7435C15.9163 12.1645 15.7705 12.5208 15.4788 12.8125C15.1872 13.1042 14.8309 13.25 14.4099 13.25H1.58947C1.16849 13.25 0.812174 13.1042 0.520508 12.8125C0.228841 12.5208 0.0830078 12.1645 0.0830078 11.7435V2.25646C0.0830078 1.83549 0.228841 1.47917 0.520508 1.1875C0.812174 0.895833 1.16849 0.75 1.58947 0.75H14.4099C14.8309 0.75 15.1872 0.895833 15.4788 1.1875C15.7705 1.47917 15.9163 1.83549 15.9163 2.25646ZM1.33301 4.00333H14.6663V2.25646C14.6663 2.19229 14.6396 2.13354 14.5861 2.08021C14.5328 2.02674 14.4741 2 14.4099 2H1.58947C1.5253 2 1.46655 2.02674 1.41322 2.08021C1.35974 2.13354 1.33301 2.19229 1.33301 2.25646V4.00333ZM1.33301 6.66333V11.7435C1.33301 11.8077 1.35974 11.8665 1.41322 11.9198C1.46655 11.9733 1.5253 12 1.58947 12H14.4099C14.4741 12 14.5328 11.9733 14.5861 11.9198C14.6396 11.8665 14.6663 11.8077 14.6663 11.7435V6.66333H1.33301Z" fill="#FF8C00"/>
</svg>
