<svg width="19" height="19" viewBox="0 0 19 19" fill="none" xmlns="http://www.w3.org/2000/svg">
<path d="M9.33268 18.7489C7.77713 18.7489 6.34657 18.3947 5.04102 17.6864C3.73546 16.978 2.66602 16.0336 1.83268 14.853V17.0822H0.166016V12.0822H5.16602V13.7489H3.10352C3.77018 14.7489 4.64865 15.5544 5.73893 16.1655C6.82921 16.7766 8.02713 17.0822 9.33268 17.0822C10.3743 17.0822 11.35 16.8843 12.2598 16.4884C13.1695 16.0926 13.9612 15.5579 14.6348 14.8843C15.3084 14.2107 15.8431 13.419 16.2389 12.5093C16.6348 11.5996 16.8327 10.6239 16.8327 9.58219H18.4993C18.4993 10.8461 18.2598 12.0336 17.7806 13.1447C17.3014 14.2558 16.6452 15.228 15.8118 16.0614C14.9785 16.8947 14.0063 17.5509 12.8952 18.0301C11.7841 18.5093 10.5966 18.7489 9.33268 18.7489ZM8.58268 15.4155V14.3322C7.9299 14.1794 7.39865 13.8982 6.98893 13.4884C6.57921 13.0787 6.27713 12.5405 6.08268 11.8739L7.45768 11.3322C7.62435 11.9016 7.88476 12.3287 8.23893 12.6134C8.5931 12.8982 8.99935 13.0405 9.45768 13.0405C9.91602 13.0405 10.3084 12.9329 10.6348 12.7176C10.9612 12.5023 11.1243 12.1655 11.1243 11.7072C11.1243 11.3044 10.9542 10.978 10.6139 10.728C10.2737 10.478 9.66601 10.1933 8.79101 9.87386C7.97157 9.58219 7.37088 9.23497 6.98893 8.83219C6.60699 8.42942 6.41602 7.90164 6.41602 7.24886C6.41602 6.67942 6.61393 6.16205 7.00977 5.69678C7.4056 5.2315 7.94379 4.92942 8.62435 4.79053V3.74886H10.0827V4.79053C10.5827 4.83219 11.0375 5.03358 11.4473 5.39469C11.857 5.7558 12.1382 6.17942 12.291 6.66553L10.9577 7.20719C10.8466 6.88775 10.666 6.62039 10.416 6.40511C10.166 6.18983 9.81879 6.08219 9.37435 6.08219C8.88824 6.08219 8.51671 6.18636 8.25977 6.39469C8.00282 6.60303 7.87435 6.88775 7.87435 7.24886C7.87435 7.60997 8.03407 7.89469 8.35351 8.10303C8.67296 8.31136 9.24935 8.55442 10.0827 8.83219C11.0827 9.19331 11.7493 9.61692 12.0827 10.103C12.416 10.5891 12.5827 11.1239 12.5827 11.7072C12.5827 12.11 12.5132 12.4641 12.3743 12.7697C12.2355 13.0752 12.0514 13.3357 11.8223 13.5509C11.5931 13.7662 11.3257 13.9398 11.0202 14.0718C10.7146 14.2037 10.3882 14.3044 10.041 14.3739V15.4155H8.58268ZM0.166016 9.58219C0.166016 8.3183 0.405599 7.1308 0.884766 6.01969C1.36393 4.90858 2.02018 3.93636 2.85352 3.10303C3.68685 2.26969 4.65907 1.61344 5.77018 1.13428C6.88129 0.655111 8.06879 0.415527 9.33268 0.415527C10.8882 0.415527 12.3188 0.769694 13.6243 1.47803C14.9299 2.18636 15.9993 3.13081 16.8327 4.31136V2.08219H18.4993V7.08219H13.4993V5.41553H15.5618C14.8952 4.41553 14.0167 3.60997 12.9264 2.99886C11.8362 2.38775 10.6382 2.08219 9.33268 2.08219C8.29101 2.08219 7.31532 2.28011 6.4056 2.67594C5.49588 3.07178 4.70421 3.6065 4.0306 4.28011C3.35699 4.95372 2.82227 5.74539 2.42643 6.65511C2.0306 7.56483 1.83268 8.54053 1.83268 9.58219H0.166016Z" fill="#F37335"/>
</svg>
