<svg width="16" height="15" viewBox="0 0 16 15" fill="none" xmlns="http://www.w3.org/2000/svg">
<path d="M10.2925 12.8495L7.75113 8.38462L2.55103 8.34561L5.09242 12.8105L10.2925 12.8495ZM11.5961 12.1075L14.2177 7.61644L11.6764 3.15155L9.05475 7.64261L11.5961 12.1075ZM7.76296 6.88925L10.3542 2.4586L5.22158 2.42435L2.6303 6.855L7.76296 6.88925ZM5.08986 14.3222C4.81544 14.3202 4.56555 14.2539 4.34018 14.1232C4.11481 13.9926 3.93411 13.8078 3.79807 13.5688L0.848585 8.38693C0.71255 8.14793 0.645915 7.8982 0.64868 7.63773C0.651445 7.37726 0.722022 7.12854 0.860411 6.89155L3.92978 1.67099C4.06817 1.434 4.25143 1.25059 4.47957 1.12074C4.7077 0.990884 4.95898 0.926965 5.2334 0.928978L11.2894 0.955478C11.5638 0.957491 11.8137 1.02381 12.039 1.15442C12.2644 1.28504 12.4451 1.46985 12.5812 1.70884L15.5306 6.89073C15.6667 7.12973 15.7333 7.37946 15.7305 7.63993C15.7278 7.9004 15.6572 8.14912 15.5188 8.3861L12.4494 13.6067C12.3111 13.8437 12.1278 14.0271 11.8997 14.1569C11.6715 14.2868 11.4202 14.3507 11.1458 14.3487L5.08986 14.3222Z" fill="white"/>
</svg>
