<svg width="18" height="20" viewBox="0 0 18 20" fill="none" xmlns="http://www.w3.org/2000/svg">
<path d="M4.5 3.58228C4.08333 3.58228 3.72917 3.72811 3.4375 4.01978C3.14583 4.31144 3 4.66561 3 5.08228C3 5.49894 3.14583 5.85311 3.4375 6.14478C3.72917 6.43644 4.08333 6.58228 4.5 6.58228C4.91667 6.58228 5.27083 6.43644 5.5625 6.14478C5.85417 5.85311 6 5.49894 6 5.08228C6 4.66561 5.85417 4.31144 5.5625 4.01978C5.27083 3.72811 4.91667 3.58228 4.5 3.58228ZM4.5 13.5823C4.08333 13.5823 3.72917 13.7281 3.4375 14.0198C3.14583 14.3114 3 14.6656 3 15.0823C3 15.4989 3.14583 15.8531 3.4375 16.1448C3.72917 16.4364 4.08333 16.5823 4.5 16.5823C4.91667 16.5823 5.27083 16.4364 5.5625 16.1448C5.85417 15.8531 6 15.4989 6 15.0823C6 14.6656 5.85417 14.3114 5.5625 14.0198C5.27083 13.7281 4.91667 13.5823 4.5 13.5823ZM1 0.582275H17C17.2833 0.582275 17.5208 0.678109 17.7125 0.869775C17.9042 1.06144 18 1.29894 18 1.58228V8.58228C18 8.86561 17.9042 9.10311 17.7125 9.29478C17.5208 9.48644 17.2833 9.58228 17 9.58228H1C0.716667 9.58228 0.479167 9.48644 0.2875 9.29478C0.0958333 9.10311 0 8.86561 0 8.58228V1.58228C0 1.29894 0.0958333 1.06144 0.2875 0.869775C0.479167 0.678109 0.716667 0.582275 1 0.582275ZM2 2.58228V7.58228H16V2.58228H2ZM1 10.5823H17C17.2833 10.5823 17.5208 10.6781 17.7125 10.8698C17.9042 11.0614 18 11.2989 18 11.5823V18.5823C18 18.8656 17.9042 19.1031 17.7125 19.2948C17.5208 19.4864 17.2833 19.5823 17 19.5823H1C0.716667 19.5823 0.479167 19.4864 0.2875 19.2948C0.0958333 19.1031 0 18.8656 0 18.5823V11.5823C0 11.2989 0.0958333 11.0614 0.2875 10.8698C0.479167 10.6781 0.716667 10.5823 1 10.5823ZM2 12.5823V17.5823H16V12.5823H2Z" fill="#FF8C00"/>
</svg>
