<svg width="18" height="20" viewBox="0 0 18 20" fill="none" xmlns="http://www.w3.org/2000/svg">
<path d="M0.833008 8.68211V2.92836L8.33301 0.120605L15.833 2.92836V7.88986H14.333V3.97261L8.33301 1.73211L2.33301 3.97261V8.68211C2.33301 9.49627 2.43842 10.2959 2.64926 11.0811C2.86026 11.8664 3.15676 12.6097 3.53876 13.3109C3.92076 14.0122 4.37526 14.6514 4.90226 15.2284C5.42926 15.8052 6.00876 16.2974 6.64076 16.7051V18.4186C4.92159 17.5468 3.52384 16.2317 2.44751 14.4734C1.37117 12.715 0.833008 10.7846 0.833008 8.68211ZM12.8908 17.3321H13.7753V15.0244H16.083V14.1399H13.7753V11.8321H12.8908V14.1399H10.583V15.0244H12.8908V17.3321ZM13.333 19.0821C12.0843 19.0821 11.0222 18.6443 10.1465 17.7686C9.27084 16.8929 8.83301 15.8308 8.83301 14.5821C8.83301 13.3334 9.27084 12.2713 10.1465 11.3956C11.0222 10.5199 12.0843 10.0821 13.333 10.0821C14.5817 10.0821 15.6438 10.5199 16.5195 11.3956C17.3952 12.2713 17.833 13.3334 17.833 14.5821C17.833 15.8308 17.3952 16.8929 16.5195 17.7686C15.6438 18.6443 14.5817 19.0821 13.333 19.0821ZM8.33201 9.31286C8.81084 9.31286 9.22076 9.14427 9.56176 8.80711C9.90276 8.46994 10.0733 8.06194 10.0733 7.58311C10.0733 7.10427 9.90276 6.69436 9.56176 6.35336C9.22076 6.01236 8.81084 5.84186 8.33201 5.84186C7.85317 5.84186 7.44517 6.01236 7.10801 6.35336C6.77084 6.69436 6.60226 7.10427 6.60226 7.58311C6.60226 8.06194 6.77084 8.46994 7.10801 8.80711C7.44517 9.14427 7.85317 9.31286 8.33201 9.31286Z" fill="#FF8C00"/>
</svg>
