<svg width="22" height="20" viewBox="0 0 22 20" fill="none" xmlns="http://www.w3.org/2000/svg">
<path d="M3.89961 19.5823L3.74961 18.3073L3.54961 18.2073C3.48294 18.1739 3.39128 18.1156 3.27461 18.0323L2.07461 18.5323L0.974609 16.6323L1.99961 15.8573V15.3323L0.974609 14.5323L2.07461 12.6323L3.27461 13.1323C3.35794 13.0823 3.43711 13.0323 3.51211 12.9823C3.58711 12.9323 3.66628 12.8906 3.74961 12.8573L3.89961 11.5823H6.09961L6.24961 12.8573L6.44961 12.9573C6.48294 12.9739 6.52461 12.9989 6.57461 13.0323L6.72461 13.1323L7.92461 12.6323L9.02461 14.5323L7.99961 15.3073V15.8573L13.4746 12.6823L12.3496 14.6573L12.6496 14.8823L8.69961 17.1823L7.92461 18.5323L6.72461 18.0323C6.64128 18.0823 6.56211 18.1323 6.48711 18.1823C6.41211 18.2323 6.33294 18.2739 6.24961 18.3073L6.09961 19.5823H3.89961ZM4.99961 14.0823C4.58294 14.0823 4.22878 14.2281 3.93711 14.5198C3.64544 14.8114 3.49961 15.1656 3.49961 15.5823C3.49961 15.9989 3.64544 16.3531 3.93711 16.6448C4.22878 16.9364 4.58294 17.0823 4.99961 17.0823C5.41628 17.0823 5.77044 16.9364 6.06211 16.6448C6.35378 16.3531 6.49961 15.9989 6.49961 15.5823C6.49961 15.1656 6.35378 14.8114 6.06211 14.5198C5.77044 14.2281 5.41628 14.0823 4.99961 14.0823ZM8.89961 8.58228L8.74961 7.30728C8.71628 7.27394 8.67461 7.24894 8.62461 7.23228C8.57461 7.21561 8.53294 7.19061 8.49961 7.15728V12.6573L8.12461 12.0073L6.99961 12.4823V7.38228L5.99961 5.63228L6.99961 4.85728V4.33228L5.97461 3.53228L7.07461 1.63228L8.27461 2.13228C8.35794 2.08228 8.43711 2.03228 8.51211 1.98228C8.58711 1.93228 8.66628 1.89061 8.74961 1.85728L8.89961 0.582275H11.0996L11.2496 1.85728L11.4496 1.95728C11.5163 1.99061 11.6079 2.04894 11.7246 2.13228L12.9246 1.63228L14.0246 3.53228L12.9996 4.30728V4.83228L14.0246 5.63228L12.9246 7.53228L11.7246 7.03228C11.6413 7.08228 11.5621 7.13228 11.4871 7.18228C11.4121 7.23228 11.3329 7.27394 11.2496 7.30728L11.0996 8.58228H8.89961ZM9.99961 3.08228C9.58294 3.08228 9.22878 3.22811 8.93711 3.51978C8.64544 3.81144 8.49961 4.16561 8.49961 4.58228C8.49961 4.99894 8.64544 5.35311 8.93711 5.64478C9.22878 5.93644 9.58294 6.08228 9.99961 6.08228C10.4163 6.08228 10.7704 5.93644 11.0621 5.64478C11.3538 5.35311 11.4996 4.99894 11.4996 4.58228C11.4996 4.16561 11.3538 3.81144 11.0621 3.51978C10.7704 3.22811 10.4163 3.08228 9.99961 3.08228ZM15.8996 19.5823L15.7496 18.3073L15.5496 18.2073C15.4829 18.1739 15.3913 18.1156 15.2746 18.0323L14.0746 18.5323L12.9746 16.6323L13.9996 15.8573V15.3323L12.9746 14.5573L14.0746 12.6323L15.2746 13.1323C15.3246 13.0989 15.3579 13.0781 15.3746 13.0698L15.7496 12.8823L10.3496 9.08228H11.5496L11.6496 8.18228L16.5246 11.5823H18.0996L18.2496 12.8573L18.4496 12.9573C18.4829 12.9739 18.5246 12.9989 18.5746 13.0323L18.7246 13.1323L19.9246 12.6323L21.0246 14.5323L19.9996 15.3073V15.8323L21.0246 16.6323L19.9246 18.5323L18.7246 18.0323C18.6413 18.0823 18.5621 18.1323 18.4871 18.1823C18.4121 18.2323 18.3329 18.2739 18.2496 18.3073L18.0996 19.5823H15.8996ZM16.9996 14.0823C16.5829 14.0823 16.2288 14.2281 15.9371 14.5198C15.6454 14.8114 15.4996 15.1656 15.4996 15.5823C15.4996 15.9989 15.6454 16.3531 15.9371 16.6448C16.2288 16.9364 16.5829 17.0823 16.9996 17.0823C17.4163 17.0823 17.7704 16.9364 18.0621 16.6448C18.3538 16.3531 18.4996 15.9989 18.4996 15.5823C18.4996 15.1656 18.3538 14.8114 18.0621 14.5198C17.7704 14.2281 17.4163 14.0823 16.9996 14.0823Z" fill="#FF8C00"/>
</svg>
