<svg width="13" height="12" viewBox="0 0 13 12" fill="none" xmlns="http://www.w3.org/2000/svg">
<path d="M6.5 11.7042L5.81016 11.0841C4.77412 10.1442 3.91734 9.33651 3.23984 8.66109C2.56234 7.98557 2.02547 7.38438 1.62922 6.8575C1.23297 6.33073 0.956146 5.85016 0.79875 5.41578C0.64125 4.98151 0.5625 4.54083 0.5625 4.09375C0.5625 3.20677 0.861563 2.46417 1.45969 1.86594C2.05792 1.26781 2.80052 0.96875 3.6875 0.96875C4.23312 0.96875 4.74875 1.09635 5.23438 1.35156C5.72 1.60677 6.14187 1.97276 6.5 2.44953C6.85813 1.97276 7.28 1.60677 7.76563 1.35156C8.25125 1.09635 8.76688 0.96875 9.3125 0.96875C10.1995 0.96875 10.9421 1.26781 11.5403 1.86594C12.1384 2.46417 12.4375 3.20677 12.4375 4.09375C12.4375 4.54083 12.3587 4.98151 12.2013 5.41578C12.0439 5.85016 11.767 6.33073 11.3708 6.8575C10.9745 7.38438 10.4386 7.98557 9.76313 8.66109C9.08771 9.33651 8.22995 10.1442 7.18984 11.0841L6.5 11.7042Z" fill="#FF8C00"/>
</svg>
