<svg width="18" height="18" viewBox="0 0 18 18" fill="none" xmlns="http://www.w3.org/2000/svg">
<path d="M0.955534 17.125C1.32623 16.0972 1.5722 15.0462 1.69345 13.9718C1.8147 12.8977 1.88921 11.8173 1.91699 10.7308C1.37533 10.5437 0.927409 10.2058 0.573242 9.71706C0.219076 9.2283 0.0419922 8.64206 0.0419922 7.9583V6.64414C1.60713 6.12705 3.2022 5.34025 4.8272 4.28372C6.4522 3.22705 7.84324 2.10685 9.00033 0.923096C10.1574 2.10685 11.5485 3.22705 13.1735 4.28372C14.7985 5.34025 16.3935 6.12705 17.9587 6.64414V7.9583C17.9587 8.64206 17.7816 9.2283 17.4274 9.71706C17.0732 10.2058 16.6253 10.5437 16.0837 10.7308C16.1114 11.8173 16.186 12.8977 16.3072 13.9718C16.4285 15.0462 16.6744 16.0972 17.0451 17.125H0.955534ZM3.01949 6.7083H14.9812C13.791 6.11858 12.6911 5.46608 11.6814 4.7508C10.6718 4.03553 9.7781 3.32796 9.00033 2.6281C8.22255 3.32796 7.32887 4.03553 6.31928 4.7508C5.30956 5.46608 4.20963 6.11858 3.01949 6.7083ZM11.0837 9.62497C11.511 9.62497 11.861 9.45935 12.1335 9.1281C12.4058 8.79699 12.542 8.40705 12.542 7.9583H9.62533C9.62533 8.40705 9.76151 8.79699 10.0339 9.1281C10.3064 9.45935 10.6563 9.62497 11.0837 9.62497ZM6.91699 9.62497C7.34435 9.62497 7.69428 9.45935 7.96678 9.1281C8.23915 8.79699 8.37533 8.40705 8.37533 7.9583H5.45866C5.45866 8.40705 5.59484 8.79699 5.8672 9.1281C6.1397 9.45935 6.48963 9.62497 6.91699 9.62497ZM2.75033 9.62497C3.17769 9.62497 3.52762 9.45935 3.80012 9.1281C4.07248 8.79699 4.20866 8.40705 4.20866 7.9583H1.29199C1.29199 8.40705 1.42817 8.79699 1.70053 9.1281C1.97303 9.45935 2.32296 9.62497 2.75033 9.62497ZM2.60283 15.875H5.28887C5.42456 14.9882 5.52845 14.1071 5.60053 13.2316C5.67262 12.3561 5.72685 11.4723 5.76324 10.5802C5.59005 10.4946 5.42359 10.3896 5.26387 10.2652C5.10415 10.1407 4.96074 9.98289 4.83366 9.79164C4.6306 10.0801 4.38755 10.313 4.10449 10.4904C3.8213 10.6677 3.5088 10.7831 3.16699 10.8364C3.13921 11.6923 3.0879 12.539 3.01303 13.3766C2.93831 14.2143 2.80158 15.0471 2.60283 15.875ZM6.55158 15.875H11.4491C11.322 15.0416 11.2245 14.2096 11.1566 13.3789C11.0888 12.5482 11.0367 11.7093 11.0003 10.8621C10.5857 10.8611 10.2038 10.7637 9.85449 10.5698C9.50519 10.3757 9.22046 10.11 9.00033 9.77247C8.78019 10.11 8.49116 10.3757 8.13324 10.5698C7.77533 10.7637 7.39769 10.8611 7.00033 10.8621C6.96394 11.7093 6.91185 12.5482 6.84408 13.3789C6.77616 14.2096 6.67866 15.0416 6.55158 15.875ZM12.7118 15.875H15.3978C15.1991 15.0471 15.0623 14.2143 14.9876 13.3766C14.9128 12.539 14.8614 11.6923 14.8337 10.8364C14.4919 10.7831 14.1746 10.6677 13.8818 10.4904C13.589 10.313 13.3507 10.0748 13.167 9.7756C13.0506 9.97212 12.9098 10.134 12.7447 10.2612C12.5797 10.3883 12.4106 10.4946 12.2374 10.5802C12.2738 11.4723 12.3302 12.3561 12.4066 13.2316C12.483 14.1071 12.5847 14.9882 12.7118 15.875ZM15.2503 9.62497C15.6777 9.62497 16.0276 9.45935 16.3001 9.1281C16.5725 8.79699 16.7087 8.40705 16.7087 7.9583H13.792C13.792 8.40705 13.9282 8.79699 14.2005 9.1281C14.473 9.45935 14.823 9.62497 15.2503 9.62497Z" fill="#FF8C00"/>
</svg>
