<svg width="20" height="20" viewBox="0 0 20 20" fill="none" xmlns="http://www.w3.org/2000/svg">
<path d="M9.65599 15.1973C9.94149 15.1973 10.1827 15.0988 10.3795 14.9018C10.5763 14.7046 10.6747 14.4632 10.6747 14.1775C10.6747 13.892 10.5762 13.6509 10.379 13.454C10.1818 13.2574 9.94049 13.159 9.65499 13.159C9.36949 13.159 9.12833 13.2576 8.93149 13.4548C8.73466 13.6519 8.63624 13.8933 8.63624 14.1788C8.63624 14.4643 8.73483 14.7054 8.93199 14.9023C9.12916 15.0989 9.37049 15.1973 9.65599 15.1973ZM8.94774 11.6165H10.3555C10.3683 11.1244 10.4404 10.7311 10.5717 10.4368C10.7032 10.1426 11.0222 9.75261 11.5285 9.26678C11.9683 8.82695 12.3052 8.42078 12.539 8.04828C12.773 7.67595 12.89 7.2362 12.89 6.72903C12.89 5.8682 12.5807 5.19578 11.9622 4.71178C11.3436 4.22795 10.6118 3.98603 9.76699 3.98603C8.93233 3.98603 8.24166 4.20878 7.69499 4.65428C7.14816 5.09978 6.75808 5.62445 6.52474 6.22828L7.80924 6.74353C7.93108 6.41153 8.13941 6.08812 8.43424 5.77328C8.72908 5.45862 9.16691 5.30128 9.74774 5.30128C10.3387 5.30128 10.7756 5.46311 11.0582 5.78678C11.3411 6.11061 11.4825 6.4667 11.4825 6.85503C11.4825 7.19486 11.3857 7.50578 11.192 7.78778C10.9985 8.06978 10.7517 8.3422 10.4517 8.60503C9.79524 9.19736 9.38049 9.66986 9.20749 10.0225C9.03433 10.375 8.94774 10.9064 8.94774 11.6165ZM9.66874 19.082C8.35474 19.082 7.11966 18.8327 5.96349 18.334C4.80733 17.8354 3.80166 17.1586 2.94649 16.3038C2.09133 15.4489 1.41424 14.4437 0.915242 13.288C0.416409 12.1324 0.166992 10.8976 0.166992 9.58378C0.166992 8.26978 0.416325 7.0347 0.914992 5.87853C1.41366 4.72236 2.09041 3.7167 2.94524 2.86153C3.80008 2.00636 4.80533 1.32928 5.96099 0.830281C7.11666 0.331448 8.35141 0.0820312 9.66524 0.0820312C10.9792 0.0820312 12.2143 0.331364 13.3705 0.830031C14.5267 1.3287 15.5323 2.00545 16.3875 2.86028C17.2427 3.71511 17.9197 4.72036 18.4187 5.87603C18.9176 7.0317 19.167 8.26645 19.167 9.58028C19.167 10.8943 18.9177 12.1294 18.419 13.2855C17.9203 14.4417 17.2436 15.4474 16.3887 16.3025C15.5339 17.1577 14.5287 17.8348 13.373 18.3338C12.2173 18.8326 10.9826 19.082 9.66874 19.082ZM9.66699 17.582C11.9003 17.582 13.792 16.807 15.342 15.257C16.892 13.707 17.667 11.8154 17.667 9.58203C17.667 7.3487 16.892 5.45703 15.342 3.90703C13.792 2.35703 11.9003 1.58203 9.66699 1.58203C7.43366 1.58203 5.54199 2.35703 3.99199 3.90703C2.44199 5.45703 1.66699 7.3487 1.66699 9.58203C1.66699 11.8154 2.44199 13.707 3.99199 15.257C5.54199 16.807 7.43366 17.582 9.66699 17.582Z" fill="#FF8C00"/>
</svg>
