<svg width="16" height="16" viewBox="0 0 16 16" fill="none" xmlns="http://www.w3.org/2000/svg">
<path d="M7.99967 15.9166C6.91426 15.9166 5.88995 15.7086 4.92676 15.2925C3.96356 14.8764 3.12356 14.3098 2.40676 13.5929C1.68981 12.8761 1.12329 12.0361 0.707175 11.0729C0.291064 10.1097 0.0830078 9.0854 0.0830078 7.99998C0.0830078 6.90595 0.291064 5.87949 0.707175 4.9206C1.12329 3.96172 1.68981 3.12387 2.40676 2.40706C3.12356 1.69012 3.96356 1.12359 4.92676 0.70748C5.88995 0.291369 6.91426 0.083313 7.99967 0.083313C9.0937 0.083313 10.1202 0.291369 11.0791 0.70748C12.0379 1.12359 12.8758 1.69012 13.5926 2.40706C14.3095 3.12387 14.8761 3.96172 15.2922 4.9206C15.7083 5.87949 15.9163 6.90595 15.9163 7.99998C15.9163 9.0854 15.7083 10.1097 15.2922 11.0729C14.8761 12.0361 14.3095 12.8761 13.5926 13.5929C12.8758 14.3098 12.0379 14.8764 11.0791 15.2925C10.1202 15.7086 9.0937 15.9166 7.99967 15.9166ZM7.99967 14.6489C8.42495 14.0849 8.78287 13.516 9.07342 12.9423C9.36398 12.3685 9.60065 11.7414 9.78342 11.0608H6.21592C6.4094 11.7628 6.64877 12.4006 6.93405 12.9744C7.21919 13.5481 7.5744 14.1063 7.99967 14.6489ZM6.38592 14.4198C6.06648 13.9614 5.7796 13.4404 5.5253 12.8566C5.27099 12.2728 5.07335 11.6741 4.93238 11.0608H2.10551C2.54565 11.9262 3.13592 12.6533 3.87634 13.2421C4.61676 13.8307 5.45329 14.2232 6.38592 14.4198ZM9.61342 14.4198C10.5461 14.2232 11.3826 13.8307 12.123 13.2421C12.8634 12.6533 13.4537 11.9262 13.8938 11.0608H11.067C10.8992 11.6794 10.6881 12.2807 10.4338 12.8646C10.1797 13.4485 9.9062 13.9669 9.61342 14.4198ZM1.58134 9.81081H4.67926C4.6269 9.50109 4.58891 9.19741 4.5653 8.89977C4.54183 8.60227 4.53009 8.30234 4.53009 7.99998C4.53009 7.69762 4.54183 7.39769 4.5653 7.10019C4.58891 6.80255 4.6269 6.49887 4.67926 6.18915H1.58134C1.5012 6.4722 1.43981 6.76651 1.39717 7.07206C1.3544 7.37762 1.33301 7.68692 1.33301 7.99998C1.33301 8.31304 1.3544 8.62234 1.39717 8.9279C1.43981 9.23345 1.5012 9.52776 1.58134 9.81081ZM5.92905 9.81081H10.0703C10.1225 9.50109 10.1604 9.20012 10.184 8.9079C10.2075 8.61567 10.2193 8.31304 10.2193 7.99998C10.2193 7.68692 10.2075 7.38428 10.184 7.09206C10.1604 6.79984 10.1225 6.49887 10.0703 6.18915H5.92905C5.87683 6.49887 5.83891 6.79984 5.8153 7.09206C5.79183 7.38428 5.78009 7.68692 5.78009 7.99998C5.78009 8.31304 5.79183 8.61567 5.8153 8.9079C5.83891 9.20012 5.87683 9.50109 5.92905 9.81081ZM11.3201 9.81081H14.418C14.4981 9.52776 14.5595 9.23345 14.6022 8.9279C14.645 8.62234 14.6663 8.31304 14.6663 7.99998C14.6663 7.68692 14.645 7.37762 14.6022 7.07206C14.5595 6.76651 14.4981 6.4722 14.418 6.18915H11.3201C11.3725 6.49887 11.4104 6.80255 11.434 7.10019C11.4575 7.39769 11.4693 7.69762 11.4693 7.99998C11.4693 8.30234 11.4575 8.60227 11.434 8.89977C11.4104 9.19741 11.3725 9.50109 11.3201 9.81081ZM11.067 4.93915H13.8938C13.4484 4.06304 12.8622 3.33595 12.1351 2.7579C11.408 2.17998 10.5675 1.7847 9.61342 1.57206C9.93287 2.05706 10.217 2.58755 10.4659 3.16352C10.715 3.73935 10.9153 4.33123 11.067 4.93915ZM6.21592 4.93915H9.78342C9.58995 4.24248 9.34662 3.60061 9.05342 3.01352C8.76009 2.42644 8.40884 1.87227 7.99967 1.35102C7.59051 1.87227 7.23926 2.42644 6.94592 3.01352C6.65273 3.60061 6.4094 4.24248 6.21592 4.93915ZM2.10551 4.93915H4.93238C5.08405 4.33123 5.2844 3.73935 5.53342 3.16352C5.78231 2.58755 6.06648 2.05706 6.38592 1.57206C5.42648 1.7847 4.58461 2.18137 3.8603 2.76206C3.13585 3.34262 2.55092 4.06831 2.10551 4.93915Z" fill="#FF8C00"/>
</svg>
