<svg width="16" height="22" viewBox="0 0 16 22" fill="none" xmlns="http://www.w3.org/2000/svg">
<path d="M2 21.5823C1.45 21.5823 0.979167 21.3864 0.5875 20.9948C0.195833 20.6031 0 20.1323 0 19.5823V9.58228C0 9.03228 0.195833 8.56144 0.5875 8.16978C0.979167 7.77811 1.45 7.58228 2 7.58228H3V5.58228C3 4.19894 3.4875 3.01978 4.4625 2.04478C5.4375 1.06978 6.61667 0.582275 8 0.582275C9.38333 0.582275 10.5625 1.06978 11.5375 2.04478C12.5125 3.01978 13 4.19894 13 5.58228V7.58228H14C14.55 7.58228 15.0208 7.77811 15.4125 8.16978C15.8042 8.56144 16 9.03228 16 9.58228V19.5823C16 20.1323 15.8042 20.6031 15.4125 20.9948C15.0208 21.3864 14.55 21.5823 14 21.5823H2ZM2 19.5823H14V9.58228H2V19.5823ZM8 16.5823C8.55 16.5823 9.02083 16.3864 9.4125 15.9948C9.80417 15.6031 10 15.1323 10 14.5823C10 14.0323 9.80417 13.5614 9.4125 13.1698C9.02083 12.7781 8.55 12.5823 8 12.5823C7.45 12.5823 6.97917 12.7781 6.5875 13.1698C6.19583 13.5614 6 14.0323 6 14.5823C6 15.1323 6.19583 15.6031 6.5875 15.9948C6.97917 16.3864 7.45 16.5823 8 16.5823ZM5 7.58228H11V5.58228C11 4.74894 10.7083 4.04061 10.125 3.45728C9.54167 2.87394 8.83333 2.58228 8 2.58228C7.16667 2.58228 6.45833 2.87394 5.875 3.45728C5.29167 4.04061 5 4.74894 5 5.58228V7.58228Z" fill="#FF8C00"/>
</svg>
