<svg width="16" height="16" viewBox="0 0 16 16" fill="none" xmlns="http://www.w3.org/2000/svg">
<path d="M5.09658 15.0834C3.9288 15.0834 2.94026 14.6787 2.13095 13.8694C1.32165 13.0601 0.916992 12.0715 0.916992 10.9038C0.916992 10.4135 1.0006 9.93704 1.16783 9.4744C1.33505 9.01176 1.57463 8.59245 1.88658 8.21648L4.82887 4.67794L2.9522 0.916687H13.0485L11.1718 4.67794L14.1141 8.21648C14.426 8.59245 14.6656 9.01176 14.8328 9.4744C15.0001 9.93704 15.0837 10.4135 15.0837 10.9038C15.0837 12.0715 14.6769 13.0601 13.8632 13.8694C13.0498 14.6787 12.0634 15.0834 10.9041 15.0834H5.09658ZM8.00033 11.1169C7.58477 11.1169 7.22984 10.9697 6.93553 10.6754C6.64109 10.3811 6.49387 10.0262 6.49387 9.61065C6.49387 9.19495 6.64109 8.83995 6.93553 8.54565C7.22984 8.25134 7.58477 8.10419 8.00033 8.10419C8.41588 8.10419 8.77081 8.25134 9.06512 8.54565C9.35956 8.83995 9.50678 9.19495 9.50678 9.61065C9.50678 10.0262 9.35956 10.3811 9.06512 10.6754C8.77081 10.9697 8.41588 11.1169 8.00033 11.1169ZM5.97303 4.14585H10.0355L11.0212 2.16669H4.97949L5.97303 4.14585ZM5.09658 13.8334H10.9041C11.7225 13.8334 12.4154 13.5484 12.9826 12.9784C13.55 12.4084 13.8337 11.7168 13.8337 10.9038C13.8337 10.5597 13.7746 10.2262 13.6566 9.90315C13.5385 9.57995 13.37 9.28801 13.151 9.02731L10.1285 5.39585H5.89303L2.85762 9.0144C2.63859 9.27509 2.46873 9.56919 2.34803 9.89669C2.22734 10.224 2.16699 10.5597 2.16699 10.9038C2.16699 11.7168 2.45199 12.4084 3.02199 12.9784C3.59199 13.5484 4.28352 13.8334 5.09658 13.8334Z" fill="#FF8C00"/>
</svg>
