<svg width="18" height="17" viewBox="0 0 18 17" fill="none" xmlns="http://www.w3.org/2000/svg">
<path d="M16.8337 10.4574L10.8753 16.4157C10.7087 16.5824 10.5212 16.7074 10.3128 16.7907C10.1045 16.874 9.89616 16.9157 9.68783 16.9157C9.47949 16.9157 9.27116 16.874 9.06283 16.7907C8.85449 16.7074 8.66699 16.5824 8.50033 16.4157L1.14616 9.06152C0.993381 8.90875 0.875326 8.73166 0.791992 8.53027C0.708659 8.32889 0.666992 8.11708 0.666992 7.89486V1.91569C0.666992 1.45736 0.830187 1.065 1.15658 0.738607C1.48296 0.412218 1.87533 0.249023 2.33366 0.249023H8.31283C8.53505 0.249023 8.75033 0.294162 8.95866 0.38444C9.16699 0.474718 9.34755 0.596246 9.50033 0.749023L16.8337 8.10319C17.0003 8.26986 17.1219 8.45736 17.1982 8.66569C17.2746 8.87402 17.3128 9.08236 17.3128 9.29069C17.3128 9.49902 17.2746 9.70389 17.1982 9.90527C17.1219 10.1067 17.0003 10.2907 16.8337 10.4574ZM9.68783 15.249L15.6462 9.29069L8.29199 1.91569H2.33366V7.87402L9.68783 15.249ZM4.41699 5.24902C4.76421 5.24902 5.05935 5.1275 5.30241 4.88444C5.54546 4.64138 5.66699 4.34625 5.66699 3.99902C5.66699 3.6518 5.54546 3.35666 5.30241 3.11361C5.05935 2.87055 4.76421 2.74902 4.41699 2.74902C4.06977 2.74902 3.77463 2.87055 3.53158 3.11361C3.28852 3.35666 3.16699 3.6518 3.16699 3.99902C3.16699 4.34625 3.28852 4.64138 3.53158 4.88444C3.77463 5.1275 4.06977 5.24902 4.41699 5.24902Z" fill="#FF8C00"/>
</svg>
