<svg width="16" height="21" viewBox="0 0 16 21" fill="none" xmlns="http://www.w3.org/2000/svg">
<path d="M8 20.5823C5.68333 19.9989 3.77083 18.6698 2.2625 16.5948C0.754167 14.5198 0 12.2156 0 9.68228V3.58228L8 0.582275L16 3.58228V9.68228C16 12.2156 15.2458 14.5198 13.7375 16.5948C12.2292 18.6698 10.3167 19.9989 8 20.5823ZM8 18.4823C9.73333 17.9323 11.1667 16.8323 12.3 15.1823C13.4333 13.5323 14 11.6989 14 9.68228V4.95728L8 2.70728L2 4.95728V9.68228C2 11.6989 2.56667 13.5323 3.7 15.1823C4.83333 16.8323 6.26667 17.9323 8 18.4823Z" fill="#FF8C00"/>
</svg>
