<svg width="15" height="10" viewBox="0 0 15 10" fill="none" xmlns="http://www.w3.org/2000/svg">
<path d="M7.50176 7.73562C8.20999 7.73562 8.8115 7.48776 9.30629 6.99203C9.80108 6.4963 10.0485 5.89432 10.0485 5.18609C10.0485 4.47786 9.80061 3.87635 9.30488 3.38156C8.80915 2.88677 8.20717 2.63937 7.49895 2.63937C6.79072 2.63937 6.18921 2.88724 5.69441 3.38297C5.19962 3.8787 4.95223 4.48068 4.95223 5.18891C4.95223 5.89714 5.20009 6.49865 5.69582 6.99344C6.19155 7.48823 6.79353 7.73562 7.50176 7.73562ZM7.50035 6.875C7.0316 6.875 6.63316 6.71094 6.30504 6.38281C5.97691 6.05469 5.81285 5.65625 5.81285 5.1875C5.81285 4.71875 5.97691 4.32031 6.30504 3.99219C6.63316 3.66406 7.0316 3.5 7.50035 3.5C7.9691 3.5 8.36754 3.66406 8.69566 3.99219C9.02379 4.32031 9.18785 4.71875 9.18785 5.1875C9.18785 5.65625 9.02379 6.05469 8.69566 6.38281C8.36754 6.71094 7.9691 6.875 7.50035 6.875ZM7.50113 9.5625C6.06395 9.5625 4.75441 9.16604 3.57254 8.37313C2.39066 7.58031 1.52046 6.51844 0.961914 5.1875C1.52046 3.85656 2.39035 2.79469 3.5716 2.00187C4.75296 1.20896 6.06228 0.8125 7.49957 0.8125C8.93676 0.8125 10.2463 1.20896 11.4282 2.00187C12.61 2.79469 13.4802 3.85656 14.0388 5.1875C13.4802 6.51844 12.6104 7.58031 11.4291 8.37313C10.2477 9.16604 8.93843 9.5625 7.50113 9.5625ZM7.50035 8.625C8.67744 8.625 9.75817 8.3151 10.7425 7.69531C11.7269 7.07552 12.4795 6.23958 13.0004 5.1875C12.4795 4.13542 11.7269 3.29948 10.7425 2.67969C9.75817 2.0599 8.67744 1.75 7.50035 1.75C6.32327 1.75 5.24254 2.0599 4.25816 2.67969C3.27379 3.29948 2.52118 4.13542 2.00035 5.1875C2.52118 6.23958 3.27379 7.07552 4.25816 7.69531C5.24254 8.3151 6.32327 8.625 7.50035 8.625Z" fill="black"/>
</svg>
